<svg width="64" height="64" viewBox="0 0 64 64" fill="none" xmlns="http://www.w3.org/2000/svg">
<path d="M16.9609 12.801C14.3369 12.801 12.6069 14.593 12.6069 16.961C12.6069 19.265 14.2719 21.119 16.8319 21.119C19.5839 21.119 21.3119 19.265 21.2479 16.961C21.2479 14.593 19.5849 12.801 16.9609 12.801ZM41.5349 23.809C37.1189 23.809 34.4319 26.368 33.3439 28.16H33.2169L32.8319 24.385H25.7289C25.7929 26.817 25.9199 29.633 25.9199 32.961V51.199H34.1109V35.775C34.1109 35.007 34.1749 34.24 34.3669 33.664C35.0069 32.128 36.3519 30.527 38.5919 30.527C41.5999 30.527 42.7519 32.896 42.7519 36.352V51.199H51.0079V35.393C51.0079 27.457 46.9109 23.809 41.5349 23.809ZM12.8009 24.385V51.199H20.9919V24.385H12.8009Z" fill="black"/>
</svg>
