<svg width="200" height="98" viewBox="0 0 200 98" fill="none" xmlns="http://www.w3.org/2000/svg">
<path d="M105.062 78.6735C105.152 69.6784 102.825 62.3637 99.8646 62.3353C96.9044 62.3071 94.432 69.5759 94.3424 78.5708C94.2526 87.5658 96.5796 94.8807 99.5396 94.9089C102.5 94.9373 104.972 87.6685 105.062 78.6735Z" fill="#113322"/>
<path d="M87.894 76.6305C92.9322 69.1112 95.0104 61.7247 92.536 60.1324C90.0614 58.5401 83.9712 63.3448 78.9332 70.8642C73.895 78.3835 71.8168 85.7698 74.2912 87.3623C76.7658 88.9546 82.8558 84.1498 87.894 76.6305Z" fill="#113322"/>
<path d="M74.5584 65.8423C82.9452 62.1865 88.7686 57.0741 87.5654 54.4234C86.3624 51.7727 78.5884 52.5876 70.2016 56.2436C61.8149 59.8994 55.9914 65.0119 57.1945 67.6626C58.3976 70.3133 66.1717 69.4983 74.5584 65.8423Z" fill="#113322"/>
<path d="M86.5587 46.9901C87.0091 44.1228 80.0197 40.6891 70.9477 39.3206C61.8755 37.9521 54.156 39.1673 53.7057 42.0346C53.2553 44.9019 60.2447 48.3354 69.3169 49.7039C78.3889 51.0724 86.1085 49.8572 86.5587 46.9901Z" fill="#113322"/>
<path d="M89.8162 40.1594C91.7766 37.9857 87.7902 31.3944 80.9124 25.4374C74.0346 19.4804 66.8698 16.4135 64.9095 18.5872C62.9491 20.761 66.9355 27.3523 73.8134 33.3094C80.6912 39.2664 87.856 42.3332 89.8162 40.1594Z" fill="#113322"/>
<path d="M96.3027 36.1675C99.1511 35.3776 99.4341 27.7204 96.9349 19.065C94.4357 10.4094 90.1005 4.03308 87.2521 4.82298C84.4037 5.61288 84.1207 13.2699 86.6199 21.9255C89.1191 30.5809 93.4543 36.9573 96.3027 36.1675Z" fill="#113322"/>
<path d="M113.917 22.1947C116.59 13.5892 116.461 5.92814 113.629 5.08336C110.797 4.23856 106.335 10.5299 103.662 19.1354C100.989 27.7409 101.118 35.402 103.95 36.2468C106.782 37.0915 111.244 30.8003 113.917 22.1947Z" fill="#113322"/>
<path d="M126.503 33.8228C133.498 27.9987 137.616 21.485 135.699 19.2742C133.782 17.0633 126.558 19.9924 119.562 25.8164C112.567 31.6405 108.45 38.1542 110.367 40.3651C112.283 42.576 119.508 39.6469 126.503 33.8228Z" fill="#113322"/>
<path d="M130.664 50.2778C139.762 49.085 146.819 45.7871 146.427 42.9116C146.034 40.0363 138.341 38.6723 129.243 39.8649C120.145 41.0578 113.088 44.3557 113.48 47.2312C113.873 50.1065 121.566 51.4707 130.664 50.2778Z" fill="#113322"/>
<path d="M142.401 68.4843C143.657 65.8575 137.938 60.6335 129.626 56.8162C121.315 52.9989 113.559 52.034 112.302 54.6608C111.046 57.2878 116.766 62.5118 125.077 66.3291C133.389 70.1462 141.145 71.1113 142.401 68.4843Z" fill="#113322"/>
<path d="M124.918 87.8667C127.424 86.3226 125.494 78.8974 120.609 71.2822C115.723 63.667 109.73 58.7456 107.224 60.2897C104.718 61.8338 106.648 69.2591 111.533 76.8742C116.419 84.4894 122.412 89.411 124.918 87.8667Z" fill="#113322"/>
</svg>
