<svg width="55" height="45" viewBox="0 0 55 45" fill="none" xmlns="http://www.w3.org/2000/svg">
<g clip-path="url(#clip0_3_100)">
<path d="M17.2981 44.9991C10.9248 44.9991 4.99404 43.1179 0 39.8951C0.882768 40.0005 1.78099 40.0539 2.69176 40.0539C7.97823 40.0539 12.844 38.2376 16.7056 35.1909C11.7679 35.0992 7.6005 31.8148 6.16473 27.3016C6.86437 27.4368 7.57515 27.5049 8.28756 27.5051C9.31679 27.5051 10.3138 27.3664 11.2606 27.1069C6.09858 26.0634 2.20893 21.4717 2.20893 15.9676C2.20893 15.9196 2.20893 15.8723 2.2099 15.825C3.7766 16.7021 5.52899 17.1893 7.32078 17.2457C4.29313 15.2084 2.30099 11.7313 2.30099 7.79019C2.30099 5.7081 2.85737 3.7566 3.82865 2.07861C9.39404 8.95195 17.7083 13.4742 27.0864 13.9482C26.8911 13.0993 26.793 12.2306 26.7941 11.3592C26.7941 5.08574 31.8466 -0.000732422 38.0785 -0.000732422C41.3239 -0.000732422 44.2564 1.37896 46.3148 3.58695C48.8419 3.0858 51.2652 2.15333 53.48 0.829837C52.6378 3.48261 50.8486 5.70891 48.5188 7.11501C50.8013 6.84037 52.9761 6.22968 54.9999 5.32619C53.4871 7.60435 51.5735 9.6051 49.3692 11.2068C49.3909 11.694 49.4017 12.1838 49.4017 12.6764C49.4017 27.6885 38.0521 44.9999 17.2969 44.9999" fill="black"/>
</g>
<defs>
<clipPath id="clip0_3_100">
<rect width="55" height="45" fill="white"/>
</clipPath>
</defs>
</svg>
