<svg width="55" height="39" viewBox="0 0 55 39" fill="none" xmlns="http://www.w3.org/2000/svg">
<g clip-path="url(#clip0_3_98)">
<path d="M54.42 8.40667C54.42 8.40667 53.8831 4.59333 52.2295 2.90333C50.1464 0.693333 47.8054 0.693333 46.7102 0.563333C39.0445 0 27.5117 0 27.5117 0H27.4902C27.4902 0 15.9576 0 8.24775 0.563333C7.17396 0.693333 4.83303 0.693333 2.72842 2.90333C1.09625 4.59333 0.559355 8.40667 0.559355 8.40667C0.559355 8.40667 0.000976562 12.9133 0.000976562 17.3983V21.6017C0.000976562 26.0867 0.559355 30.5717 0.559355 30.5717C0.559355 30.5717 1.09625 34.385 2.7499 36.075C4.83303 38.285 7.58195 38.22 8.80613 38.4367C13.2087 38.87 27.4902 39 27.4902 39C27.4902 39 39.0443 38.9783 46.7327 38.415C47.8065 38.285 50.1474 38.285 52.2521 36.075C53.9057 34.385 54.4426 30.5717 54.4426 30.5717C54.4426 30.5717 54.999 26.0867 54.999 21.6017V17.3983C54.9776 12.9133 54.4192 8.40667 54.4192 8.40667H54.42ZM21.8196 26.6933V11.115L36.6808 18.9367L21.8196 26.6933Z" fill="black"/>
</g>
<defs>
<clipPath id="clip0_3_98">
<rect width="55" height="39" fill="white"/>
</clipPath>
</defs>
</svg>
